M48
; DRILL file {KiCad (7.0.0-0)} date Sunday, 19. February 2023 um 20:14:21
; FORMAT={-:-/ absolute / inch / decimal}
; #@! TF.CreationDate,2023-02-19T20:14:21+01:00
; #@! TF.GenerationSoftware,Kicad,Pcbnew,(7.0.0-0)
; #@! TF.FileFunction,NonPlated,1,2,NPTH
FMAT,2
INCH
; #@! TA.AperFunction,NonPlated,NPTH,ComponentDrill
T1C0.0354
; #@! TA.AperFunction,NonPlated,NPTH,ComponentDrill
T2C0.0670
; #@! TA.AperFunction,NonPlated,NPTH,ComponentDrill
T3C0.1181
; #@! TA.AperFunction,NonPlated,NPTH,ComponentDrill
T4C0.1350
%
G90
G05
T1
X10.6783Y-5.7776
X10.6783Y-5.7776
X10.6783Y-5.8957
X10.6783Y-5.8957
T2
X5.689Y-4.5669
X5.689Y-5.2362
X5.689Y-5.9055
X6.122Y-4.5669
X6.122Y-5.2362
X6.122Y-5.9055
X6.3976Y-4.5669
X6.3976Y-5.2362
X6.3976Y-5.9055
X6.8307Y-4.5669
X6.8307Y-5.2362
X6.8307Y-5.9055
X7.1063Y-4.1732
X7.1063Y-4.8425
X7.1063Y-5.5118
X7.5394Y-4.1732
X7.5394Y-4.8425
X7.5394Y-5.5118
X7.815Y-4.0059
X7.815Y-4.6752
X7.815Y-5.3445
X8.248Y-4.0059
X8.248Y-4.6752
X8.248Y-5.3445
X8.5236Y-4.229
X8.5236Y-4.8983
X8.5236Y-5.5676
X8.9567Y-4.229
X8.9567Y-4.8983
X8.9567Y-5.5676
X9.2323Y-4.3406
X9.2323Y-5.0098
X9.2323Y-5.6791
X9.3488Y-6.467
X9.6654Y-4.3406
X9.6654Y-5.0098
X9.6654Y-5.6791
X9.7672Y-6.5791
X10.1003Y-6.7171
X10.4754Y-6.9336
T3
X5.7087Y-4.4193
X5.7087Y-5.0886
X5.7087Y-5.7579
X5.9055Y-4.3327
X5.9055Y-4.3327
X5.9055Y-5.002
X5.9055Y-5.002
X5.9055Y-5.6713
X5.9055Y-5.6713
X6.1024Y-4.4193
X6.1024Y-5.0886
X6.1024Y-5.7579
X6.4173Y-4.4193
X6.4173Y-5.0886
X6.4173Y-5.7579
X6.6142Y-4.3327
X6.6142Y-4.3327
X6.6142Y-5.002
X6.6142Y-5.002
X6.6142Y-5.6713
X6.6142Y-5.6713
X6.811Y-4.4193
X6.811Y-5.0886
X6.811Y-5.7579
X7.126Y-4.0256
X7.126Y-4.6949
X7.126Y-5.3642
X7.3228Y-3.939
X7.3228Y-3.939
X7.3228Y-4.6083
X7.3228Y-4.6083
X7.3228Y-5.2776
X7.3228Y-5.2776
X7.5197Y-4.0256
X7.5197Y-4.6949
X7.5197Y-5.3642
X7.8346Y-3.8583
X7.8346Y-4.5276
X7.8346Y-5.1969
X8.0315Y-3.7717
X8.0315Y-3.7717
X8.0315Y-4.4409
X8.0315Y-4.4409
X8.0315Y-5.1102
X8.0315Y-5.1102
X8.2283Y-3.8583
X8.2283Y-4.5276
X8.2283Y-5.1969
X8.5433Y-4.0814
X8.5433Y-4.7507
X8.5433Y-5.4199
X8.7402Y-3.9948
X8.7402Y-3.9948
X8.7402Y-4.664
X8.7402Y-4.664
X8.7402Y-5.3333
X8.7402Y-5.3333
X8.937Y-4.0814
X8.937Y-4.7507
X8.937Y-5.4199
X9.252Y-4.1929
X9.252Y-4.8622
X9.252Y-5.5315
X9.4061Y-6.3295
X9.4488Y-4.1063
X9.4488Y-4.1063
X9.4488Y-4.7756
X9.4488Y-4.7756
X9.4488Y-5.4449
X9.4488Y-5.4449
X9.6186Y-6.2968
X9.6186Y-6.2968
X9.6457Y-4.1929
X9.6457Y-4.8622
X9.6457Y-5.5315
X9.7864Y-6.4314
X10.1912Y-6.599
X10.405Y-6.6225
X10.405Y-6.6225
X10.5321Y-6.7959
T4
X5.9055Y-4.5669
X5.9055Y-5.2362
X5.9055Y-5.9055
X6.6142Y-4.5669
X6.6142Y-5.2362
X6.6142Y-5.9055
X7.3228Y-4.1732
X7.3228Y-4.8425
X7.3228Y-5.5118
X8.0315Y-4.0059
X8.0315Y-4.6752
X8.0315Y-5.3445
X8.7402Y-4.229
X8.7402Y-4.8983
X8.7402Y-5.5676
X9.4488Y-4.3406
X9.4488Y-5.0098
X9.4488Y-5.6791
X9.558Y-6.523
X10.2878Y-6.8253
T0
M30
