M48
; DRILL file {KiCad (7.0.0-0)} date Sunday, 19. February 2023 um 20:14:21
; FORMAT={-:-/ absolute / inch / decimal}
; #@! TF.CreationDate,2023-02-19T20:14:21+01:00
; #@! TF.GenerationSoftware,Kicad,Pcbnew,(7.0.0-0)
; #@! TF.FileFunction,Plated,1,2,PTH
FMAT,2
INCH
; #@! TA.AperFunction,Plated,PTH,ViaDrill
T1C0.0118
; #@! TA.AperFunction,Plated,PTH,ViaDrill
T2C0.0157
; #@! TA.AperFunction,Plated,PTH,ComponentDrill
T3C0.0157
; #@! TA.AperFunction,Plated,PTH,ComponentDrill
T4C0.0295
; #@! TA.AperFunction,Plated,PTH,ComponentDrill
T5C0.0390
; #@! TA.AperFunction,Plated,PTH,ComponentDrill
T6C0.0433
; #@! TA.AperFunction,Plated,PTH,ComponentDrill
T7C0.0866
%
G90
G05
T1
X5.9055Y-4.2323
X5.9055Y-4.4488
X5.9055Y-4.9016
X5.9055Y-5.1181
X6.4173Y-4.252
X6.5157Y-5.1181
X6.6142Y-4.4488
X6.6142Y-4.9016
X6.6142Y-5.5709
X6.6142Y-5.7874
X7.126Y-3.8583
X7.2244Y-4.0551
X7.2244Y-4.7244
X7.3228Y-4.5079
X7.3228Y-5.1772
X7.3228Y-5.3937
X7.7559Y-4.0551
X7.7953Y-4.2913
X7.8346Y-3.6909
X7.9134Y-5.2264
X8.0315Y-3.8878
X8.0315Y-5.0098
X8.1Y-4.5
X8.3Y-4.6
X8.5433Y-3.914
X8.6928Y-4.7802
X8.7402Y-4.1109
X8.7402Y-5.2329
X8.7402Y-5.4495
X8.8Y-4.7802
X9.1732Y-5.0886
X9.252Y-4.0256
X9.3307Y-4.4193
X9.3307Y-5.7776
X9.4488Y-4.2224
X9.4488Y-4.6752
X9.4488Y-4.8917
X9.4488Y-5.3445
X9.4488Y-5.561
X9.6446Y-6.1998
X9.6457Y-5.7776
X9.8Y-6.8
X9.8228Y-5.7579
X10.0197Y-5.935
X10.2787Y-6.6837
X10.4724Y-5.8366
X10.5118Y-6.0335
X10.5315Y-5.9272
X10.689Y-5.8366
X10.7Y-6.6
T2
X5.8Y-5.6
X6.2Y-5.5
X6.2599Y-5.5
X6.5Y-4.6
X6.9Y-4.3
X7.0256Y-4.6
X7.8Y-4.2
X7.9Y-4.0
X8.3Y-5.6
X8.5Y-5.7
X9.0Y-4.0
X9.0Y-4.5
X9.3Y-6.0
X9.7Y-4.7
X9.7Y-5.1
X9.8Y-6.0
X9.8555Y-5.0445
X9.9Y-4.8
X10.0Y-5.7
X10.3Y-5.5
X10.4Y-5.7
X10.6646Y-4.5
T3
X10.2456Y-4.2236
X10.2456Y-4.3236
X10.2456Y-4.4236
X10.2456Y-4.5236
X10.2456Y-4.6236
X10.2456Y-4.7236
X10.2456Y-4.8236
X10.2456Y-4.9236
X10.2456Y-5.0236
X10.2456Y-5.1236
X10.2456Y-5.2236
X10.2456Y-5.3236
X10.3056Y-4.2236
X10.3056Y-4.3236
X10.3056Y-4.4236
X10.3056Y-4.5236
X10.3056Y-4.6236
X10.3056Y-4.7236
X10.3056Y-4.8236
X10.3056Y-4.9236
X10.3056Y-5.0236
X10.3056Y-5.1236
X10.3056Y-5.2236
X10.3056Y-5.3236
T4
X9.9803Y-5.7579
X9.9803Y-5.7579
X9.9803Y-5.8366
X9.9803Y-5.8366
T5
X5.7555Y-4.7638
X5.7555Y-5.4331
X5.7555Y-6.1024
X6.0555Y-4.7638
X6.0555Y-5.4331
X6.0555Y-6.1024
X6.4642Y-4.7638
X6.4642Y-5.4331
X6.4642Y-6.1024
X6.7642Y-4.7638
X6.7642Y-5.4331
X6.7642Y-6.1024
X7.1728Y-4.3701
X7.1728Y-5.0394
X7.1728Y-5.7087
X7.4728Y-4.3701
X7.4728Y-5.0394
X7.4728Y-5.7087
X7.8815Y-4.2028
X7.8815Y-4.872
X7.8815Y-5.5413
X8.1815Y-4.2028
X8.1815Y-4.872
X8.1815Y-5.5413
X8.5902Y-4.4259
X8.5902Y-5.0951
X8.5902Y-5.7644
X8.8902Y-4.4259
X8.8902Y-5.0951
X8.8902Y-5.7644
X9.2988Y-4.5374
X9.2988Y-5.2067
X9.2988Y-5.876
X9.3622Y-6.6743
X9.5988Y-4.5374
X9.5988Y-5.2067
X9.5988Y-5.876
X9.6519Y-6.752
X10.0595Y-6.9208
X10.3193Y-7.0708
T6
X9.9756Y-4.2236
X9.9756Y-4.2236
X9.9756Y-4.3236
X9.9756Y-4.4236
X9.9756Y-4.5236
X9.9756Y-4.6236
X9.9756Y-4.7236
X9.9756Y-4.8236
X9.9756Y-4.9236
X9.9756Y-5.0236
X9.9756Y-5.1236
X9.9756Y-5.2236
X9.9756Y-5.3236
X10.5756Y-4.2236
X10.5756Y-4.2236
X10.5756Y-4.3236
X10.5756Y-4.4236
X10.5756Y-4.5236
X10.5756Y-4.6236
X10.5756Y-4.7236
X10.5756Y-4.8236
X10.5756Y-4.9236
X10.5756Y-5.0236
X10.5756Y-5.1236
X10.5756Y-5.2236
X10.5756Y-5.3236
T7
X10.0787Y-5.5217
X10.4921Y-5.5217
T0
M30
