%TF.GenerationSoftware,KiCad,Pcbnew,(7.0.0-0)*%
%TF.CreationDate,2023-02-19T20:14:33+01:00*%
%TF.ProjectId,karlkb_6x3,6b61726c-6b62-45f3-9678-332e6b696361,v0.1*%
%TF.SameCoordinates,Original*%
%TF.FileFunction,Soldermask,Bot*%
%TF.FilePolarity,Negative*%
%FSLAX46Y46*%
G04 Gerber Fmt 4.6, Leading zero omitted, Abs format (unit mm)*
G04 Created by KiCad (PCBNEW (7.0.0-0)) date 2023-02-19 20:14:33*
%MOMM*%
%LPD*%
G01*
G04 APERTURE LIST*
G04 Aperture macros list*
%AMRoundRect*
0 Rectangle with rounded corners*
0 $1 Rounding radius*
0 $2 $3 $4 $5 $6 $7 $8 $9 X,Y pos of 4 corners*
0 Add a 4 corners polygon primitive as box body*
4,1,4,$2,$3,$4,$5,$6,$7,$8,$9,$2,$3,0*
0 Add four circle primitives for the rounded corners*
1,1,$1+$1,$2,$3*
1,1,$1+$1,$4,$5*
1,1,$1+$1,$6,$7*
1,1,$1+$1,$8,$9*
0 Add four rect primitives between the rounded corners*
20,1,$1+$1,$2,$3,$4,$5,0*
20,1,$1+$1,$4,$5,$6,$7,0*
20,1,$1+$1,$6,$7,$8,$9,0*
20,1,$1+$1,$8,$9,$2,$3,0*%
%AMFreePoly0*
4,1,14,0.635355,0.435355,0.650000,0.400000,0.650000,0.200000,0.635355,0.164645,0.035355,-0.435355,0.000000,-0.450000,-0.035355,-0.435355,-0.635355,0.164645,-0.650000,0.200000,-0.650000,0.400000,-0.635355,0.435355,-0.600000,0.450000,0.600000,0.450000,0.635355,0.435355,0.635355,0.435355,$1*%
%AMFreePoly1*
4,1,16,0.635355,1.035355,0.650000,1.000000,0.650000,-0.250000,0.635355,-0.285355,0.600000,-0.300000,-0.600000,-0.300000,-0.635355,-0.285355,-0.650000,-0.250000,-0.650000,1.000000,-0.635355,1.035355,-0.600000,1.050000,-0.564645,1.035355,0.000000,0.470710,0.564645,1.035355,0.600000,1.050000,0.635355,1.035355,0.635355,1.035355,$1*%
%AMFreePoly2*
4,1,16,0.523593,0.794084,0.541603,0.777735,1.041603,0.027735,1.050000,0.000000,1.041603,-0.027735,0.541603,-0.777735,0.523593,-0.794084,0.500000,-0.800000,-0.500000,-0.800000,-0.535355,-0.785355,-0.550000,-0.750000,-0.550000,0.750000,-0.535355,0.785355,-0.500000,0.800000,0.500000,0.800000,0.523593,0.794084,0.523593,0.794084,$1*%
%AMFreePoly3*
4,1,16,0.535355,0.785355,0.550000,0.750000,0.550000,-0.750000,0.535355,-0.785355,0.500000,-0.800000,-0.650000,-0.800000,-0.682954,-0.787603,-0.699568,-0.756561,-0.691603,-0.722265,-0.210093,0.000000,-0.691603,0.722265,-0.699568,0.756561,-0.682954,0.787603,-0.650000,0.800000,0.500000,0.800000,0.535355,0.785355,0.535355,0.785355,$1*%
G04 Aperture macros list end*
%ADD10C,0.100000*%
%ADD11C,0.250000*%
%ADD12C,3.529000*%
%ADD13C,1.801800*%
%ADD14C,3.100000*%
%ADD15RoundRect,0.050000X-1.300000X-1.300000X1.300000X-1.300000X1.300000X1.300000X-1.300000X1.300000X0*%
%ADD16RoundRect,0.050000X-1.592168X-0.919239X0.919239X-1.592168X1.592168X0.919239X-0.919239X1.592168X0*%
%ADD17RoundRect,0.050000X-1.775833X-0.475833X0.475833X-1.775833X1.775833X0.475833X-0.475833X1.775833X0*%
%ADD18RoundRect,0.050000X-0.450000X-0.600000X0.450000X-0.600000X0.450000X0.600000X-0.450000X0.600000X0*%
%ADD19C,2.005000*%
%ADD20RoundRect,0.050000X-0.889000X-0.889000X0.889000X-0.889000X0.889000X0.889000X-0.889000X0.889000X0*%
%ADD21RoundRect,0.050000X-0.589958X-0.463087X0.279375X-0.696024X0.589958X0.463087X-0.279375X0.696024X0*%
%ADD22RoundRect,0.050000X-1.088798X-0.628618X0.628618X-1.088798X1.088798X0.628618X-0.628618X1.088798X0*%
%ADD23RoundRect,0.050000X-0.689711X-0.294615X0.089711X-0.744615X0.689711X0.294615X-0.089711X0.744615X0*%
%ADD24RoundRect,0.050000X-1.214397X-0.325397X0.325397X-1.214397X1.214397X0.325397X-0.325397X1.214397X0*%
%ADD25FreePoly0,270.000000*%
%ADD26FreePoly1,270.000000*%
%ADD27FreePoly1,90.000000*%
%ADD28FreePoly0,90.000000*%
%ADD29RoundRect,0.050000X-0.800000X0.800000X-0.800000X-0.800000X0.800000X-0.800000X0.800000X0.800000X0*%
%ADD30C,1.700000*%
%ADD31RoundRect,0.300000X-0.625000X-0.350000X0.625000X-0.350000X0.625000X0.350000X-0.625000X0.350000X0*%
%ADD32O,1.850000X1.300000*%
%ADD33RoundRect,0.050000X-0.750000X-0.750000X0.750000X-0.750000X0.750000X0.750000X-0.750000X0.750000X0*%
%ADD34FreePoly2,270.000000*%
%ADD35FreePoly3,270.000000*%
%ADD36C,1.000000*%
%ADD37RoundRect,0.050000X0.750000X-0.350000X0.750000X0.350000X-0.750000X0.350000X-0.750000X-0.350000X0*%
%ADD38RoundRect,0.050000X0.400000X-0.500000X0.400000X0.500000X-0.400000X0.500000X-0.400000X-0.500000X0*%
%ADD39RoundRect,0.050000X-0.450000X-0.850000X0.450000X-0.850000X0.450000X0.850000X-0.450000X0.850000X0*%
%ADD40C,4.500000*%
G04 APERTURE END LIST*
%TO.C,MCU1*%
G36*
X255920000Y-107788000D02*
G01*
X254904000Y-107788000D01*
X254904000Y-106772000D01*
X255920000Y-106772000D01*
X255920000Y-107788000D01*
G37*
D10*
X255920000Y-107788000D02*
X254904000Y-107788000D01*
X254904000Y-106772000D01*
X255920000Y-106772000D01*
X255920000Y-107788000D01*
G36*
X255920000Y-110328000D02*
G01*
X254904000Y-110328000D01*
X254904000Y-109312000D01*
X255920000Y-109312000D01*
X255920000Y-110328000D01*
G37*
X255920000Y-110328000D02*
X254904000Y-110328000D01*
X254904000Y-109312000D01*
X255920000Y-109312000D01*
X255920000Y-110328000D01*
G36*
X255920000Y-112868000D02*
G01*
X254904000Y-112868000D01*
X254904000Y-111852000D01*
X255920000Y-111852000D01*
X255920000Y-112868000D01*
G37*
X255920000Y-112868000D02*
X254904000Y-112868000D01*
X254904000Y-111852000D01*
X255920000Y-111852000D01*
X255920000Y-112868000D01*
G36*
X255920000Y-115408000D02*
G01*
X254904000Y-115408000D01*
X254904000Y-114392000D01*
X255920000Y-114392000D01*
X255920000Y-115408000D01*
G37*
X255920000Y-115408000D02*
X254904000Y-115408000D01*
X254904000Y-114392000D01*
X255920000Y-114392000D01*
X255920000Y-115408000D01*
G36*
X255920000Y-117948000D02*
G01*
X254904000Y-117948000D01*
X254904000Y-116932000D01*
X255920000Y-116932000D01*
X255920000Y-117948000D01*
G37*
X255920000Y-117948000D02*
X254904000Y-117948000D01*
X254904000Y-116932000D01*
X255920000Y-116932000D01*
X255920000Y-117948000D01*
G36*
X255920000Y-120488000D02*
G01*
X254904000Y-120488000D01*
X254904000Y-119472000D01*
X255920000Y-119472000D01*
X255920000Y-120488000D01*
G37*
X255920000Y-120488000D02*
X254904000Y-120488000D01*
X254904000Y-119472000D01*
X255920000Y-119472000D01*
X255920000Y-120488000D01*
G36*
X255920000Y-123028000D02*
G01*
X254904000Y-123028000D01*
X254904000Y-122012000D01*
X255920000Y-122012000D01*
X255920000Y-123028000D01*
G37*
X255920000Y-123028000D02*
X254904000Y-123028000D01*
X254904000Y-122012000D01*
X255920000Y-122012000D01*
X255920000Y-123028000D01*
G36*
X255920000Y-125568000D02*
G01*
X254904000Y-125568000D01*
X254904000Y-124552000D01*
X255920000Y-124552000D01*
X255920000Y-125568000D01*
G37*
X255920000Y-125568000D02*
X254904000Y-125568000D01*
X254904000Y-124552000D01*
X255920000Y-124552000D01*
X255920000Y-125568000D01*
G36*
X255920000Y-128108000D02*
G01*
X254904000Y-128108000D01*
X254904000Y-127092000D01*
X255920000Y-127092000D01*
X255920000Y-128108000D01*
G37*
X255920000Y-128108000D02*
X254904000Y-128108000D01*
X254904000Y-127092000D01*
X255920000Y-127092000D01*
X255920000Y-128108000D01*
G36*
X255920000Y-130648000D02*
G01*
X254904000Y-130648000D01*
X254904000Y-129632000D01*
X255920000Y-129632000D01*
X255920000Y-130648000D01*
G37*
X255920000Y-130648000D02*
X254904000Y-130648000D01*
X254904000Y-129632000D01*
X255920000Y-129632000D01*
X255920000Y-130648000D01*
G36*
X255920000Y-133188000D02*
G01*
X254904000Y-133188000D01*
X254904000Y-132172000D01*
X255920000Y-132172000D01*
X255920000Y-133188000D01*
G37*
X255920000Y-133188000D02*
X254904000Y-133188000D01*
X254904000Y-132172000D01*
X255920000Y-132172000D01*
X255920000Y-133188000D01*
G36*
X255920000Y-135728000D02*
G01*
X254904000Y-135728000D01*
X254904000Y-134712000D01*
X255920000Y-134712000D01*
X255920000Y-135728000D01*
G37*
X255920000Y-135728000D02*
X254904000Y-135728000D01*
X254904000Y-134712000D01*
X255920000Y-134712000D01*
X255920000Y-135728000D01*
G36*
X267096000Y-107788000D02*
G01*
X266080000Y-107788000D01*
X266080000Y-106772000D01*
X267096000Y-106772000D01*
X267096000Y-107788000D01*
G37*
X267096000Y-107788000D02*
X266080000Y-107788000D01*
X266080000Y-106772000D01*
X267096000Y-106772000D01*
X267096000Y-107788000D01*
G36*
X267096000Y-110328000D02*
G01*
X266080000Y-110328000D01*
X266080000Y-109312000D01*
X267096000Y-109312000D01*
X267096000Y-110328000D01*
G37*
X267096000Y-110328000D02*
X266080000Y-110328000D01*
X266080000Y-109312000D01*
X267096000Y-109312000D01*
X267096000Y-110328000D01*
G36*
X267096000Y-112868000D02*
G01*
X266080000Y-112868000D01*
X266080000Y-111852000D01*
X267096000Y-111852000D01*
X267096000Y-112868000D01*
G37*
X267096000Y-112868000D02*
X266080000Y-112868000D01*
X266080000Y-111852000D01*
X267096000Y-111852000D01*
X267096000Y-112868000D01*
G36*
X267096000Y-115408000D02*
G01*
X266080000Y-115408000D01*
X266080000Y-114392000D01*
X267096000Y-114392000D01*
X267096000Y-115408000D01*
G37*
X267096000Y-115408000D02*
X266080000Y-115408000D01*
X266080000Y-114392000D01*
X267096000Y-114392000D01*
X267096000Y-115408000D01*
G36*
X267096000Y-117948000D02*
G01*
X266080000Y-117948000D01*
X266080000Y-116932000D01*
X267096000Y-116932000D01*
X267096000Y-117948000D01*
G37*
X267096000Y-117948000D02*
X266080000Y-117948000D01*
X266080000Y-116932000D01*
X267096000Y-116932000D01*
X267096000Y-117948000D01*
G36*
X267096000Y-120488000D02*
G01*
X266080000Y-120488000D01*
X266080000Y-119472000D01*
X267096000Y-119472000D01*
X267096000Y-120488000D01*
G37*
X267096000Y-120488000D02*
X266080000Y-120488000D01*
X266080000Y-119472000D01*
X267096000Y-119472000D01*
X267096000Y-120488000D01*
G36*
X267096000Y-123028000D02*
G01*
X266080000Y-123028000D01*
X266080000Y-122012000D01*
X267096000Y-122012000D01*
X267096000Y-123028000D01*
G37*
X267096000Y-123028000D02*
X266080000Y-123028000D01*
X266080000Y-122012000D01*
X267096000Y-122012000D01*
X267096000Y-123028000D01*
G36*
X267096000Y-125568000D02*
G01*
X266080000Y-125568000D01*
X266080000Y-124552000D01*
X267096000Y-124552000D01*
X267096000Y-125568000D01*
G37*
X267096000Y-125568000D02*
X266080000Y-125568000D01*
X266080000Y-124552000D01*
X267096000Y-124552000D01*
X267096000Y-125568000D01*
G36*
X267096000Y-128108000D02*
G01*
X266080000Y-128108000D01*
X266080000Y-127092000D01*
X267096000Y-127092000D01*
X267096000Y-128108000D01*
G37*
X267096000Y-128108000D02*
X266080000Y-128108000D01*
X266080000Y-127092000D01*
X267096000Y-127092000D01*
X267096000Y-128108000D01*
G36*
X267096000Y-130648000D02*
G01*
X266080000Y-130648000D01*
X266080000Y-129632000D01*
X267096000Y-129632000D01*
X267096000Y-130648000D01*
G37*
X267096000Y-130648000D02*
X266080000Y-130648000D01*
X266080000Y-129632000D01*
X267096000Y-129632000D01*
X267096000Y-130648000D01*
G36*
X267096000Y-133188000D02*
G01*
X266080000Y-133188000D01*
X266080000Y-132172000D01*
X267096000Y-132172000D01*
X267096000Y-133188000D01*
G37*
X267096000Y-133188000D02*
X266080000Y-133188000D01*
X266080000Y-132172000D01*
X267096000Y-132172000D01*
X267096000Y-133188000D01*
G36*
X267096000Y-135728000D02*
G01*
X266080000Y-135728000D01*
X266080000Y-134712000D01*
X267096000Y-134712000D01*
X267096000Y-135728000D01*
G37*
X267096000Y-135728000D02*
X266080000Y-135728000D01*
X266080000Y-134712000D01*
X267096000Y-134712000D01*
X267096000Y-135728000D01*
D11*
X261887000Y-107280000D02*
G75*
G03*
X261887000Y-107280000I-125000J0D01*
G01*
X260363000Y-107280000D02*
G75*
G03*
X260363000Y-107280000I-125000J0D01*
G01*
X260363000Y-109820000D02*
G75*
G03*
X260363000Y-109820000I-125000J0D01*
G01*
X261887000Y-109820000D02*
G75*
G03*
X261887000Y-109820000I-125000J0D01*
G01*
X261887000Y-112360000D02*
G75*
G03*
X261887000Y-112360000I-125000J0D01*
G01*
X260363000Y-112360000D02*
G75*
G03*
X260363000Y-112360000I-125000J0D01*
G01*
X261887000Y-114900000D02*
G75*
G03*
X261887000Y-114900000I-125000J0D01*
G01*
X260363000Y-114900000D02*
G75*
G03*
X260363000Y-114900000I-125000J0D01*
G01*
X261887000Y-117440000D02*
G75*
G03*
X261887000Y-117440000I-125000J0D01*
G01*
X260363000Y-117440000D02*
G75*
G03*
X260363000Y-117440000I-125000J0D01*
G01*
X261887000Y-119980000D02*
G75*
G03*
X261887000Y-119980000I-125000J0D01*
G01*
X260363000Y-119980000D02*
G75*
G03*
X260363000Y-119980000I-125000J0D01*
G01*
X261887000Y-122520000D02*
G75*
G03*
X261887000Y-122520000I-125000J0D01*
G01*
X260363000Y-122520000D02*
G75*
G03*
X260363000Y-122520000I-125000J0D01*
G01*
X261887000Y-125060000D02*
G75*
G03*
X261887000Y-125060000I-125000J0D01*
G01*
X260363000Y-125060000D02*
G75*
G03*
X260363000Y-125060000I-125000J0D01*
G01*
X261887000Y-127600000D02*
G75*
G03*
X261887000Y-127600000I-125000J0D01*
G01*
X260363000Y-127600000D02*
G75*
G03*
X260363000Y-127600000I-125000J0D01*
G01*
X261887000Y-130140000D02*
G75*
G03*
X261887000Y-130140000I-125000J0D01*
G01*
X260363000Y-130140000D02*
G75*
G03*
X260363000Y-130140000I-125000J0D01*
G01*
X261887000Y-132680000D02*
G75*
G03*
X261887000Y-132680000I-125000J0D01*
G01*
X260363000Y-132680000D02*
G75*
G03*
X260363000Y-132680000I-125000J0D01*
G01*
X261887000Y-135220000D02*
G75*
G03*
X261887000Y-135220000I-125000J0D01*
G01*
X260363000Y-135220000D02*
G75*
G03*
X260363000Y-135220000I-125000J0D01*
G01*
%TD*%
D12*
%TO.C,S1*%
X150000000Y-150000000D03*
D13*
X155500000Y-150000000D03*
X144500000Y-150000000D03*
D14*
X155000000Y-146250000D03*
X150000000Y-144050000D03*
D15*
X146725000Y-144050000D03*
X158275000Y-146250000D03*
D14*
X145000000Y-146250000D03*
X150000000Y-144050000D03*
%TD*%
D12*
%TO.C,S2*%
X150000000Y-133000000D03*
D13*
X155500000Y-133000000D03*
X144500000Y-133000000D03*
D14*
X155000000Y-129250000D03*
X150000000Y-127050000D03*
D15*
X146725000Y-127050000D03*
X158275000Y-129250000D03*
D14*
X145000000Y-129250000D03*
X150000000Y-127050000D03*
%TD*%
D12*
%TO.C,S3*%
X150000000Y-116000000D03*
D13*
X155500000Y-116000000D03*
X144500000Y-116000000D03*
D14*
X155000000Y-112250000D03*
X150000000Y-110050000D03*
D15*
X146725000Y-110050000D03*
X158275000Y-112250000D03*
D14*
X145000000Y-112250000D03*
X150000000Y-110050000D03*
%TD*%
D12*
%TO.C,S4*%
X168000000Y-150000000D03*
D13*
X173500000Y-150000000D03*
X162500000Y-150000000D03*
D14*
X173000000Y-146250000D03*
X168000000Y-144050000D03*
D15*
X164725000Y-144050000D03*
X176275000Y-146250000D03*
D14*
X163000000Y-146250000D03*
X168000000Y-144050000D03*
%TD*%
D12*
%TO.C,S5*%
X168000000Y-133000000D03*
D13*
X173500000Y-133000000D03*
X162500000Y-133000000D03*
D14*
X173000000Y-129250000D03*
X168000000Y-127050000D03*
D15*
X164725000Y-127050000D03*
X176275000Y-129250000D03*
D14*
X163000000Y-129250000D03*
X168000000Y-127050000D03*
%TD*%
D12*
%TO.C,S6*%
X168000000Y-116000000D03*
D13*
X173500000Y-116000000D03*
X162500000Y-116000000D03*
D14*
X173000000Y-112250000D03*
X168000000Y-110050000D03*
D15*
X164725000Y-110050000D03*
X176275000Y-112250000D03*
D14*
X163000000Y-112250000D03*
X168000000Y-110050000D03*
%TD*%
D12*
%TO.C,S7*%
X186000000Y-140000000D03*
D13*
X191500000Y-140000000D03*
X180500000Y-140000000D03*
D14*
X191000000Y-136250000D03*
X186000000Y-134050000D03*
D15*
X182725000Y-134050000D03*
X194275000Y-136250000D03*
D14*
X181000000Y-136250000D03*
X186000000Y-134050000D03*
%TD*%
D12*
%TO.C,S8*%
X186000000Y-123000000D03*
D13*
X191500000Y-123000000D03*
X180500000Y-123000000D03*
D14*
X191000000Y-119250000D03*
X186000000Y-117050000D03*
D15*
X182725000Y-117050000D03*
X194275000Y-119250000D03*
D14*
X181000000Y-119250000D03*
X186000000Y-117050000D03*
%TD*%
D12*
%TO.C,S9*%
X186000000Y-106000000D03*
D13*
X191500000Y-106000000D03*
X180500000Y-106000000D03*
D14*
X191000000Y-102250000D03*
X186000000Y-100050000D03*
D15*
X182725000Y-100050000D03*
X194275000Y-102250000D03*
D14*
X181000000Y-102250000D03*
X186000000Y-100050000D03*
%TD*%
D12*
%TO.C,S10*%
X204000000Y-135750000D03*
D13*
X209500000Y-135750000D03*
X198500000Y-135750000D03*
D14*
X209000000Y-132000000D03*
X204000000Y-129800000D03*
D15*
X200725000Y-129800000D03*
X212275000Y-132000000D03*
D14*
X199000000Y-132000000D03*
X204000000Y-129800000D03*
%TD*%
D12*
%TO.C,S11*%
X204000000Y-118750000D03*
D13*
X209500000Y-118750000D03*
X198500000Y-118750000D03*
D14*
X209000000Y-115000000D03*
X204000000Y-112800000D03*
D15*
X200725000Y-112800000D03*
X212275000Y-115000000D03*
D14*
X199000000Y-115000000D03*
X204000000Y-112800000D03*
%TD*%
D12*
%TO.C,S12*%
X204000000Y-101750000D03*
D13*
X209500000Y-101750000D03*
X198500000Y-101750000D03*
D14*
X209000000Y-98000000D03*
X204000000Y-95800000D03*
D15*
X200725000Y-95800000D03*
X212275000Y-98000000D03*
D14*
X199000000Y-98000000D03*
X204000000Y-95800000D03*
%TD*%
D12*
%TO.C,S13*%
X222000000Y-141416667D03*
D13*
X227500000Y-141416667D03*
X216500000Y-141416667D03*
D14*
X227000000Y-137666667D03*
X222000000Y-135466667D03*
D15*
X218725000Y-135466667D03*
X230275000Y-137666667D03*
D14*
X217000000Y-137666667D03*
X222000000Y-135466667D03*
%TD*%
D12*
%TO.C,S14*%
X222000000Y-124416667D03*
D13*
X227500000Y-124416667D03*
X216500000Y-124416667D03*
D14*
X227000000Y-120666667D03*
X222000000Y-118466667D03*
D15*
X218725000Y-118466667D03*
X230275000Y-120666667D03*
D14*
X217000000Y-120666667D03*
X222000000Y-118466667D03*
%TD*%
D12*
%TO.C,S15*%
X222000000Y-107416667D03*
D13*
X227500000Y-107416667D03*
X216500000Y-107416667D03*
D14*
X227000000Y-103666667D03*
X222000000Y-101466667D03*
D15*
X218725000Y-101466667D03*
X230275000Y-103666667D03*
D14*
X217000000Y-103666667D03*
X222000000Y-101466667D03*
%TD*%
D12*
%TO.C,S16*%
X240000000Y-144250000D03*
D13*
X245500000Y-144250000D03*
X234500000Y-144250000D03*
D14*
X245000000Y-140500000D03*
X240000000Y-138300000D03*
D15*
X236725000Y-138300000D03*
X248275000Y-140500000D03*
D14*
X235000000Y-140500000D03*
X240000000Y-138300000D03*
%TD*%
D12*
%TO.C,S17*%
X240000000Y-127250000D03*
D13*
X245500000Y-127250000D03*
X234500000Y-127250000D03*
D14*
X245000000Y-123500000D03*
X240000000Y-121300000D03*
D15*
X236725000Y-121300000D03*
X248275000Y-123500000D03*
D14*
X235000000Y-123500000D03*
X240000000Y-121300000D03*
%TD*%
D12*
%TO.C,S18*%
X240000000Y-110250000D03*
D13*
X245500000Y-110250000D03*
X234500000Y-110250000D03*
D14*
X245000000Y-106500000D03*
X240000000Y-104300000D03*
D15*
X236725000Y-104300000D03*
X248275000Y-106500000D03*
D14*
X235000000Y-106500000D03*
X240000000Y-104300000D03*
%TD*%
D12*
%TO.C,S19*%
X242773279Y-165684854D03*
D13*
X248085871Y-167108359D03*
X237460687Y-164261349D03*
D14*
X248573480Y-163356727D03*
X244313252Y-159937595D03*
D16*
X241149845Y-159089963D03*
X251736887Y-164204360D03*
D14*
X238914221Y-160768537D03*
X244313252Y-159937595D03*
%TD*%
D12*
%TO.C,S20*%
X261310878Y-173363379D03*
D13*
X266074018Y-176113379D03*
X256547738Y-170613379D03*
D14*
X267516005Y-172615784D03*
X264285878Y-168210528D03*
D17*
X261449645Y-166573028D03*
X270352238Y-174253284D03*
D14*
X258855751Y-167615784D03*
X264285878Y-168210528D03*
%TD*%
D18*
%TO.C,D1*%
X151650000Y-155000000D03*
X148350000Y-155000000D03*
D19*
X153810000Y-155000000D03*
D20*
X146190000Y-155000000D03*
%TD*%
D18*
%TO.C,D2*%
X151650000Y-138000000D03*
X148350000Y-138000000D03*
D19*
X153810000Y-138000000D03*
D20*
X146190000Y-138000000D03*
%TD*%
D18*
%TO.C,D3*%
X151650000Y-121000000D03*
X148350000Y-121000000D03*
D19*
X153810000Y-121000000D03*
D20*
X146190000Y-121000000D03*
%TD*%
D18*
%TO.C,D4*%
X169650000Y-155000000D03*
X166350000Y-155000000D03*
D19*
X171810000Y-155000000D03*
D20*
X164190000Y-155000000D03*
%TD*%
D18*
%TO.C,D5*%
X169650000Y-138000000D03*
X166350000Y-138000000D03*
D19*
X171810000Y-138000000D03*
D20*
X164190000Y-138000000D03*
%TD*%
D18*
%TO.C,D6*%
X169650000Y-121000000D03*
X166350000Y-121000000D03*
D19*
X171810000Y-121000000D03*
D20*
X164190000Y-121000000D03*
%TD*%
D18*
%TO.C,D7*%
X187650000Y-145000000D03*
X184350000Y-145000000D03*
D19*
X189810000Y-145000000D03*
D20*
X182190000Y-145000000D03*
%TD*%
D18*
%TO.C,D8*%
X187650000Y-128000000D03*
X184350000Y-128000000D03*
D19*
X189810000Y-128000000D03*
D20*
X182190000Y-128000000D03*
%TD*%
D18*
%TO.C,D9*%
X187650000Y-111000000D03*
X184350000Y-111000000D03*
D19*
X189810000Y-111000000D03*
D20*
X182190000Y-111000000D03*
%TD*%
D18*
%TO.C,D10*%
X205650000Y-140750000D03*
X202350000Y-140750000D03*
D19*
X207810000Y-140750000D03*
D20*
X200190000Y-140750000D03*
%TD*%
D18*
%TO.C,D11*%
X205650000Y-123750000D03*
X202350000Y-123750000D03*
D19*
X207810000Y-123750000D03*
D20*
X200190000Y-123750000D03*
%TD*%
D18*
%TO.C,D12*%
X205650000Y-106750000D03*
X202350000Y-106750000D03*
D19*
X207810000Y-106750000D03*
D20*
X200190000Y-106750000D03*
%TD*%
D18*
%TO.C,D13*%
X223650000Y-146416667D03*
X220350000Y-146416667D03*
D19*
X225810000Y-146416667D03*
D20*
X218190000Y-146416667D03*
%TD*%
D18*
%TO.C,D14*%
X223650000Y-129416667D03*
X220350000Y-129416667D03*
D19*
X225810000Y-129416667D03*
D20*
X218190000Y-129416667D03*
%TD*%
D18*
%TO.C,D15*%
X223650000Y-112416667D03*
X220350000Y-112416667D03*
D19*
X225810000Y-112416667D03*
D20*
X218190000Y-112416667D03*
%TD*%
D18*
%TO.C,D16*%
X241650000Y-149250000D03*
X238350000Y-149250000D03*
D19*
X243810000Y-149250000D03*
D20*
X236190000Y-149250000D03*
%TD*%
D18*
%TO.C,D17*%
X241650000Y-132250000D03*
X238350000Y-132250000D03*
D19*
X243810000Y-132250000D03*
D20*
X236190000Y-132250000D03*
%TD*%
D18*
%TO.C,D18*%
X241650000Y-115250000D03*
X238350000Y-115250000D03*
D19*
X243810000Y-115250000D03*
D20*
X236190000Y-115250000D03*
%TD*%
D21*
%TO.C,D19*%
X243072962Y-170941534D03*
X239885406Y-170087432D03*
D19*
X245159361Y-171500584D03*
D22*
X237799007Y-169528382D03*
%TD*%
D23*
%TO.C,D20*%
X260239820Y-178518506D03*
X257381936Y-176868506D03*
D19*
X262110435Y-179598506D03*
D24*
X255511321Y-175788506D03*
%TD*%
D25*
%TO.C,MCU1*%
X266842000Y-135220000D03*
D26*
X265826000Y-135220000D03*
D25*
X266842000Y-132680000D03*
D26*
X265826000Y-132680000D03*
D25*
X266842000Y-130140000D03*
D26*
X265826000Y-130140000D03*
D25*
X266842000Y-127600000D03*
D26*
X265826000Y-127600000D03*
D25*
X266842000Y-125060000D03*
D26*
X265826000Y-125060000D03*
D25*
X266842000Y-122520000D03*
D26*
X265826000Y-122520000D03*
D25*
X266842000Y-119980000D03*
D26*
X265826000Y-119980000D03*
D25*
X266842000Y-117440000D03*
D26*
X265826000Y-117440000D03*
D25*
X266842000Y-114900000D03*
D26*
X265826000Y-114900000D03*
D25*
X266842000Y-112360000D03*
D26*
X265826000Y-112360000D03*
D25*
X266842000Y-109820000D03*
D26*
X265826000Y-109820000D03*
X265826000Y-107280000D03*
D25*
X266842000Y-107280000D03*
D27*
X256174000Y-135220000D03*
D28*
X255158000Y-135220000D03*
D27*
X256174000Y-132680000D03*
D28*
X255158000Y-132680000D03*
D27*
X256174000Y-130140000D03*
D28*
X255158000Y-130140000D03*
D27*
X256174000Y-127600000D03*
D28*
X255158000Y-127600000D03*
D27*
X256174000Y-125060000D03*
D28*
X255158000Y-125060000D03*
D27*
X256174000Y-122520000D03*
D28*
X255158000Y-122520000D03*
D27*
X256174000Y-119980000D03*
D28*
X255158000Y-119980000D03*
D27*
X256174000Y-117440000D03*
D28*
X255158000Y-117440000D03*
D27*
X256174000Y-114900000D03*
D28*
X255158000Y-114900000D03*
D27*
X256174000Y-112360000D03*
D28*
X255158000Y-112360000D03*
D27*
X256174000Y-109820000D03*
D28*
X255158000Y-109820000D03*
X255158000Y-107280000D03*
D27*
X256174000Y-107280000D03*
D29*
X268620000Y-107280000D03*
D30*
X268620000Y-107280000D03*
X268620000Y-109820000D03*
X268620000Y-112360000D03*
X268620000Y-114900000D03*
X268620000Y-117440000D03*
X268620000Y-119980000D03*
X268620000Y-122520000D03*
X268620000Y-125060000D03*
X268620000Y-127600000D03*
X268620000Y-130140000D03*
X268620000Y-132680000D03*
X268620000Y-135220000D03*
X253380000Y-135220000D03*
X253380000Y-132680000D03*
X253380000Y-130140000D03*
X253380000Y-127600000D03*
X253380000Y-125060000D03*
X253380000Y-122520000D03*
X253380000Y-119980000D03*
X253380000Y-117440000D03*
X253380000Y-114900000D03*
X253380000Y-112360000D03*
X253380000Y-109820000D03*
X253380000Y-107280000D03*
%TD*%
D31*
%TO.C,_2*%
X253500000Y-146250000D03*
D32*
X253499999Y-148249999D03*
%TD*%
D33*
%TO.C,PAD1*%
X258000000Y-145950000D03*
%TD*%
%TO.C,PAD2*%
X258000000Y-148550000D03*
%TD*%
D34*
%TO.C,J1*%
X265000000Y-149525000D03*
D35*
X265000000Y-150975000D03*
%TD*%
D36*
%TO.C,_3*%
X271230000Y-149750000D03*
X271230000Y-146750000D03*
X271230000Y-149750000D03*
X271230000Y-146750000D03*
D37*
X269470000Y-146000000D03*
X269470000Y-149000000D03*
X269470000Y-150500000D03*
D38*
X272330000Y-144600000D03*
X272330000Y-151900000D03*
X270120000Y-151900000D03*
X270120000Y-144600000D03*
%TD*%
D39*
%TO.C,_4_B*%
X254300000Y-153250000D03*
X257700000Y-153250000D03*
%TD*%
D40*
%TO.C,_73*%
X256000000Y-140250000D03*
%TD*%
%TO.C,_74*%
X266500000Y-140250000D03*
%TD*%
M02*
