%TF.GenerationSoftware,KiCad,Pcbnew,(7.0.0-0)*%
%TF.CreationDate,2023-02-19T20:14:33+01:00*%
%TF.ProjectId,karlkb_6x3,6b61726c-6b62-45f3-9678-332e6b696361,v0.1*%
%TF.SameCoordinates,Original*%
%TF.FileFunction,Profile,NP*%
%FSLAX46Y46*%
G04 Gerber Fmt 4.6, Leading zero omitted, Abs format (unit mm)*
G04 Created by KiCad (PCBNEW (7.0.0-0)) date 2023-02-19 20:14:33*
%MOMM*%
%LPD*%
G01*
G04 APERTURE LIST*
%TA.AperFunction,Profile*%
%ADD10C,0.150000*%
%TD*%
G04 APERTURE END LIST*
D10*
X139511250Y-157526273D02*
G75*
G03*
X141511250Y-159525414I2000000J859D01*
G01*
X139511250Y-157526273D02*
X139500000Y-107000000D01*
X140500000Y-106000000D02*
X174900000Y-106000000D01*
X176900000Y-96400000D02*
X192900000Y-96400000D01*
X175900000Y-105000000D02*
X175900000Y-97400000D01*
X194900000Y-92150000D02*
X213100000Y-92150000D01*
X214100000Y-93150000D02*
X214100000Y-96816667D01*
X193900000Y-95400000D02*
X193900000Y-93150000D01*
X215100000Y-97816667D02*
X231100000Y-97816667D01*
X232100000Y-98816667D02*
X232100000Y-99250000D01*
X250500000Y-102100000D02*
X250500000Y-101250000D01*
X233100000Y-100250000D02*
X249500000Y-100250000D01*
X231498691Y-172602489D02*
X246825638Y-176709332D01*
X230791584Y-171377744D02*
X233641417Y-160933051D01*
X273403160Y-163277252D02*
X276288646Y-167879209D01*
X276457831Y-169096436D02*
X266542666Y-186812604D01*
X265176640Y-187178629D02*
X246857804Y-176796838D01*
X246857804Y-176796838D02*
X246825638Y-176709332D01*
X232588653Y-159492394D02*
X141511250Y-159525414D01*
X273099982Y-162560025D02*
X273100000Y-104100000D01*
X272100000Y-103100000D02*
X251500000Y-103100000D01*
X233647950Y-160922231D02*
G75*
G03*
X232588653Y-159492394I-1097709J294070D01*
G01*
X230791622Y-171377754D02*
G75*
G03*
X231498691Y-172602488I965878J-258846D01*
G01*
X265176643Y-187178623D02*
G75*
G03*
X266542666Y-186812604I499999J866032D01*
G01*
X276457831Y-169096436D02*
G75*
G03*
X276288646Y-167879209I-1253728J446113D01*
G01*
X273099983Y-162560025D02*
G75*
G03*
X273403160Y-163277252I2185384J501089D01*
G01*
X273100000Y-104100000D02*
G75*
G03*
X272100000Y-103100000I-1000000J0D01*
G01*
X250500000Y-102100000D02*
G75*
G03*
X251500000Y-103100000I1000000J0D01*
G01*
X250500000Y-101250000D02*
G75*
G03*
X249500000Y-100250000I-1000000J0D01*
G01*
X232100000Y-99250000D02*
G75*
G03*
X233100000Y-100250000I1000000J0D01*
G01*
X232100033Y-98816667D02*
G75*
G03*
X231100000Y-97816667I-1000033J-33D01*
G01*
X214100033Y-96816667D02*
G75*
G03*
X215100000Y-97816667I999967J-33D01*
G01*
X214100000Y-93150000D02*
G75*
G03*
X213100000Y-92150000I-1000000J0D01*
G01*
X194900000Y-92150000D02*
G75*
G03*
X193900000Y-93150000I0J-1000000D01*
G01*
X192900000Y-96400000D02*
G75*
G03*
X193900000Y-95400000I0J1000000D01*
G01*
X176900000Y-96400000D02*
G75*
G03*
X175900000Y-97400000I0J-1000000D01*
G01*
X174900000Y-106000000D02*
G75*
G03*
X175900000Y-105000000I0J1000000D01*
G01*
X140500000Y-106000000D02*
G75*
G03*
X139500000Y-107000000I0J-1000000D01*
G01*
X177250000Y-124700000D02*
G75*
G03*
X177250000Y-124700000I-2050000J0D01*
G01*
X180850000Y-150000000D02*
G75*
G03*
X180850000Y-150000000I-2050000J0D01*
G01*
X232510000Y-110250000D02*
G75*
G03*
X232510000Y-110250000I-2050000J0D01*
G01*
X220490000Y-154940000D02*
G75*
G03*
X220490000Y-154940000I-2050000J0D01*
G01*
X271290000Y-160020000D02*
G75*
G03*
X271290000Y-160020000I-2050000J0D01*
G01*
M02*
